# xmcd CD database file
#
# Track frame offsets:
#	150
#	19262
#	40032
#	65160
#	91485
#	109410
#	130282
#	149615
#	170332
#	193195
#	211935
#	245032
#
# Disc length: 4440 seconds
#
# Revision: 0
# Processed by: cddbd v1.5PL3 Copyright (c) Steve Scherf et al.
# Submitted via: CDex 1.50beta8
#
DISCID=ba11560c
DTITLE=竹内めぐみ - みえないもの
DYEAR=2003
DGENRE=JPop
TTITLE0=足りない言葉
TTITLE1=何もない僕等
TTITLE2=孤独日和
TTITLE3=慟哭の森
TTITLE4=哀しみノイローゼ
TTITLE5=あなたが笑えばいい
TTITLE6=YOKOHAMA
TTITLE7=want
TTITLE8=さよならの音（Album Mix）
TTITLE9=長月
TTITLE10=Spiritual flower
TTITLE11=CDS200.0.4 3.0 build 16a
EXTD=YEAR: 2003
EXTT0=
EXTT1=
EXTT2=
EXTT3=
EXTT4=
EXTT5=
EXTT6=
EXTT7=
EXTT8=
EXTT9=
EXTT10=
EXTT11=
PLAYORDER=
